<svg xmlns="http://www.w3.org/2000/svg" width="25" height="25" viewBox="0 0 25 25"><path d="M12.5 25C5.6 25 0 19.4 0 12.5S5.6 0 12.5 0 25 5.6 25 12.5 19.4 25 12.5 25zm0-24.5C5.9.5.5 5.9.5 12.5s5.4 12 12 12 12-5.4 12-12-5.4-12-12-12z"/><path fill-rule="evenodd" clip-rule="evenodd" d="M16.1 24.2c-.6.1-.8-.2-.8-.5v-3.2c0-1.1-.4-1.8-.8-2.1 2.6-.3 5.3-1.3 5.3-5.7 0-1.3-.4-2.3-1.2-3.1.1-.3.5-1.5-.1-3.1 0 0-1-.3-3.2 1.2-.9-.3-1.9-.4-2.9-.4s-2 .1-2.9.4C7.3 6.1 6.4 6.4 6.4 6.4c-.7 1.6-.3 2.8-.2 3.1-.7.8-1.2 1.8-1.2 3.1 0 4.4 2.7 5.4 5.3 5.7-.3.3-.6.8-.7 1.5-.7.3-2.3.8-3.4-1 0 0-.6-1.1-1.8-1.2 0 0-1.1 0-.1.7 0 0 .8.4 1.3 1.7 0 0 .7 2.2 3.9 1.5v2c0 .3-.2.7-.8.6 0 0 1.3.5 3.6.5 2.1.2 3.8-.4 3.8-.4z"/></svg>